# xmcd CD database file generated by Grip 3.3.1
# 
# Track frame offsets:
#       150
#       22272
#       34962
#       56341
#       74495
#       88616
#       106963
#       119807
#       129536
#       147598
# 
# Disc length: 2104 seconds
# 
# Revision: 1
# Processed by: cddbd v1.5.2PL0 Copyright (c) Steve Scherf et al.
# Submitted via: Grip 3.3.1
# 
DISCID=9b08360a
DTITLE=Joao Gilberto - Getz Gilberto Live at Carnegie Hall 9 October 196
DTITLE=4
DYEAR=1964
DGENRE=Jazz
TTITLE0=Grandfather's Waltz
TTITLE1=Tonight I Shall Sleep with a Smile on My Face
TTITLE2=Stan's Blues
TTITLE3=Here's That Rainy Day
TTITLE4=Samba de Minha Terra
TTITLE5=Rosa Morena
TTITLE6=Um Braco No Bronfa
TTITLE7=Bim Bom
TTITLE8=Meditation
TTITLE9=O Pato
EXTD=YEAR: 1964
EXTT0=
EXTT1=
EXTT2=
EXTT3=
EXTT4=
EXTT5=
EXTT6=
EXTT7=
EXTT8=
EXTT9=
PLAYORDER=
